<?xml version="1.0" encoding="utf-8"?>
<svg viewBox="0 0 500 500" xmlns="http://www.w3.org/2000/svg">
  <rect width="178.753" height="91.824" style="stroke: rgb(0, 0, 0);" x="321.682" y="81.754"/>
  <g>
    <g>
      <ellipse cx="250" cy="191.8" rx="46.9" ry="51.1"/>
    </g>
    <g>
      <path d="M305.8,0H194.2L85,181.7L168.5,500h162.9L415,181.7L305.8,0z M359.4,325.1L344,336.8l-57.6-89.7&#10;&#9;&#9;&#9;c-7.9,6.2-17.1,10.4-27.1,12V490h-18.8V259.2c-10-1.6-19.2-5.9-27.1-12L156,336.8l-15.4-11.7l59.3-92.4&#10;&#9;&#9;&#9;c-6.1-8.8-10.2-19.3-11.8-30.6H125v-20.4h63.2c4.1-29.5,25.4-52.7,52.4-57.2v-13.1c-17-4.5-29.7-21.1-29.7-40.9c0-0.1,0-0.3,0-0.4&#10;&#9;&#9;&#9;h16c0,0.3,0,0.6,0,0.8c0,14,10.5,25.3,23.4,25.3s23.4-11.3,23.4-25.3c0-0.3,0-0.6,0-0.8h15.2c0,0.1,0,0.3,0,0.4&#10;&#9;&#9;&#9;c0,19.8-12.6,36.4-29.7,40.9v13.1c27,4.4,48.4,27.7,52.4,57.2H375V202h-63.2c-1.6,11.4-5.7,21.8-11.8,30.6L359.4,325.1z"/>
    </g>
  </g>
  <rect width="194.748" height="91.824" style="stroke: rgb(0, 0, 0);" x="306.872" y="-1.184"/>
  <rect width="101.146" height="158.767" style="stroke: rgb(0, 0, 0);" x="399.289" y="81.754"/>
  <rect width="134.321" height="158.767" style="stroke: rgb(0, 0, 0);" x="369.076" y="234.598"/>
  <rect width="214.89" height="158.767" style="stroke: rgb(0, 0, 0);" x="291.469" y="350.712"/>
  <rect width="134.321" height="158.767" style="stroke: rgb(0, 0, 0);" x="-6.516" y="212.679"/>
  <rect width="214.89" height="158.767" style="stroke: rgb(0, 0, 0);" x="-19.55" y="345.38"/>
  <rect width="101.146" height="158.767" style="stroke: rgb(0, 0, 0);" x="-1.777" y="76.422"/>
  <rect width="178.753" height="109.597" style="stroke: rgb(0, 0, 0);" x="-12.441" y="50.948"/>
  <rect width="236.81" height="67.535" style="stroke: rgb(0, 0, 0);" x="-24.289" y="-4.146"/>
</svg>